# xmcd CD database file
#
# Track frame offsets:
#	150
#	45811
#	80557
#	91904
#	102136
#	143485
#	172456
#
# Disc length: 2441 seconds
#
# Revision: 0
# Processed by: cddbd v1.5.2PL0 Copyright (c) Steve Scherf et al.
# Submitted via: CDex 1.70beta2
#
DISCID=4e098707
DTITLE=Phair, Jimmy - Cdn. - OVM - Live
DYEAR=1900
DGENRE=Country
TTITLE0=The Heart Is All That Matters, What's Going On In Your World, Is It Still Over
TTITLE1=Too Old To Die Young, The Hand That Rocks the Cradle
TTITLE2=To Gone For Too Long
TTITLE3=Everything's A Waltz
TTITLE4=Streets of Bakersfield, We All Have The Right To Be Wrong, Louisianna Saturday Night
TTITLE5=Your Love Is the Key, Storms of Life
TTITLE6=Let's All Go Down To the River
EXTD=
EXTT0=
EXTT1=
EXTT2=
EXTT3=
EXTT4=
EXTT5=
EXTT6=
PLAYORDER=
